<?xml version="1.0" encoding="utf-8"?>
<!-- Uploaded to: SVG Repo, www.svgrepo.com, Generator: SVG Repo Mixer Tools -->
<svg width="800px" height="800px" viewBox="0 0 1024 1024" class="icon"  version="1.1" xmlns="http://www.w3.org/2000/svg"><path d="M193.201788 967.424769a193.292973 193.292973 0 0 0 273.253102 0l500.942689-500.942688a193.292973 193.292973 0 0 0 0-273.253102L193.201788 967.424769z" fill="#E29460" /><path d="M944.583824 443.73232L443.70513 944.611015a193.196982 193.196982 0 0 1-248.48754 20.701962l-2.015802 2.079795a193.292973 193.292973 0 0 0 273.253102 0l500.942689-500.942688a193.292973 193.292973 0 0 0 0-273.253102l-2.079796 2.015802a193.260976 193.260976 0 0 1-20.733959 248.519536z" fill="" /><path d="M830.739031 56.570431a193.292973 193.292973 0 0 0-273.253102 0L56.543241 557.51312a193.292973 193.292973 0 0 0 0 273.253101L830.739031 56.570431z" fill="#E29460" /><path d="M830.739031 102.165943L102.138752 830.766221a64.313669 64.313669 0 0 0 0 91.063036 64.313669 64.313669 0 0 0 91.063036 0L921.802067 193.228979a64.313669 64.313669 0 0 0 0-91.063036 64.313669 64.313669 0 0 0-91.063036 0z" fill="#EF4D4D" /><path d="M739.675995 193.228979a64.40966 64.40966 0 0 0 0 91.095033 32.156835 32.156835 0 1 1-45.531518 45.531518 64.40966 64.40966 0 0 0-91.095033 91.095033 32.156835 32.156835 0 1 1-45.531518 45.531518l-0.031997 0.031997a64.313669 64.313669 0 0 0-91.063036 0 64.313669 64.313669 0 0 0 0 91.063036c12.574762 12.574762 12.574762 32.956756 0.031997 45.563514a32.284822 32.284822 0 0 1-45.595512 0 64.40966 64.40966 0 0 0-91.095032 91.095033 32.124838 32.124838 0 1 1-45.499522 45.499521l-0.031996 0.031997a64.40966 64.40966 0 0 0-91.095033 91.095033l11.358882 11.358882a16.094416 16.094416 0 1 0 22.781757-22.749761l-11.358882-11.390878a32.220828 32.220828 0 0 1 45.563515-45.563515v-0.031997a64.40966 64.40966 0 0 0 91.063036-91.031039 32.188831 32.188831 0 0 1 0-45.563515 32.188831 32.188831 0 0 1 45.563515 0 64.441657 64.441657 0 0 0 91.095033-91.095033 32.092841 32.092841 0 0 1 0-45.499521 32.092841 32.092841 0 0 1 45.499521 0l0.063994-0.031997a64.40966 64.40966 0 0 0 91.031039-91.063036 32.220828 32.220828 0 0 1 45.563515-45.563515 64.345666 64.345666 0 1 0 91.063035-91.063036 32.220828 32.220828 0 0 1 45.563515-45.563515l11.390879 11.358882a16.094416 16.094416 0 1 0 22.749761-22.781757l-11.358882-11.358882a64.377663 64.377663 0 0 0-91.095033 0z" fill="#EACA44" /><path d="M899.020309 170.479218l-728.568281 728.568282a64.185682 64.185682 0 0 1-78.072315 9.791036c2.687735 4.67154 5.823427 9.055109 9.791036 12.990721a64.313669 64.313669 0 0 0 91.063036 0l728.568282-728.600278a64.313669 64.313669 0 0 0 0-91.063036 61.273968 61.273968 0 0 0-12.990721-9.791036 64.217679 64.217679 0 0 1-9.791037 78.104311z" fill="" /><path d="M495.732008 239.784396m-15.998425 0a15.998425 15.998425 0 1 0 31.99685 0 15.998425 15.998425 0 1 0-31.99685 0Z" fill="#FFFFFF" /><path d="M623.719409 175.790696m-15.998425 0a15.998425 15.998425 0 1 0 31.996851 0 15.998425 15.998425 0 1 0-31.996851 0Z" fill="#FFFFFF" /><path d="M495.732008 303.778097m-15.998425 0a15.998425 15.998425 0 1 0 31.99685 0 15.998425 15.998425 0 1 0-31.99685 0Z" fill="#FFFFFF" /><path d="M335.747757 399.768648m-15.998426 0a15.998425 15.998425 0 1 0 31.996851 0 15.998425 15.998425 0 1 0-31.996851 0Z" fill="#FFFFFF" /><path d="M271.754056 527.756049m-15.998425 0a15.998425 15.998425 0 1 0 31.99685 0 15.998425 15.998425 0 1 0-31.99685 0Z" fill="#FFFFFF" /><path d="M143.766655 591.74975m-15.998425 0a15.998425 15.998425 0 1 0 31.99685 0 15.998425 15.998425 0 1 0-31.99685 0Z" fill="#FFFFFF" /></svg>